<svg style="display:none;" xmlns="http://www.w3.org/2000/svg">
  <symbol viewBox="0 0 2219.28 1774.75" id="logo-svg">
    <g>
      <path
        d="M1811.3 1301c-20.39,20.28 -42.14,38.82 -65.2,54.72 -11.41,8.31 -23.55,14.88 -35.59,21.76 -12.71,5.9 -25.28,12.3 -38.5,16.88 -26.17,9.85 -53.42,16.64 -81.16,19.74 -27.75,2.96 -55.9,2.27 -83.75,-1.74 -55.76,-7.96 -110.08,-28.74 -160.02,-57.64 -24.96,-14.52 -48.92,-31 -71.81,-48.91 -16.39,-12.98 -32.56,-27.04 -47.52,-41.51 42.91,-20.09 88.2,-35.42 134.9,-44.72 54.77,-10.29 111.17,-14.63 167.26,-9.81 56.06,4.47 111.87,15.75 165.57,34.04 26.94,8.7 53.46,19.97 80.83,28.67 16.4,5.37 33.12,9.91 50.03,13.35 -4.9,5.21 -9.85,10.33 -15.04,15.17zm7.71 -699.04c-54.28,-6.52 -108.92,-10.8 -163.83,-11.83 -47.85,-0.56 -95.97,0.78 -143.89,6.73 -17.41,-49.2 -40.09,-95.97 -64.73,-141.28 -19.59,-35.46 -40.69,-69.95 -62.72,-103.76 4.62,-3.53 9.19,-7.13 13.93,-10.47 15.05,-10.29 30.29,-20.17 46.31,-28.73 31.74,-17.56 65.18,-31.71 99.29,-43.72 34.26,-11.64 69.08,-21.66 104.55,-28.97 32.21,-6.92 65.21,-12.5 97.6,-15.55 13.38,29.67 24.75,61.27 34.57,92.8 10.98,34.58 19.54,69.92 26.44,105.56 6.59,35.69 11.33,71.85 12.87,108.25 1.35,23.6 1,47.26 -0.39,70.97zm-1052.29 -135.71c-21.42,42.12 -41.11,85.45 -56.54,130.62 -49.68,-5.12 -99.46,-5.2 -148.89,-3.27 -50.52,2.33 -100.73,7.42 -150.6,14.45 -1.66,-21.46 -2.43,-42.92 -1.8,-64.34 0.55,-36.44 4.3,-72.7 9.9,-108.56 5.91,-35.83 13.5,-71.38 23.52,-106.25 8.96,-31.78 19.46,-63.69 32.01,-93.7 32.47,2.14 65.61,6.83 97.99,12.85 35.66,6.33 70.75,15.4 105.31,26.08 34.43,11.09 68.25,24.31 100.46,41 16.24,8.12 31.75,17.56 47.08,27.43 2.92,1.95 5.72,4.1 8.61,6.11 -23.79,38.25 -46.35,77.34 -67.05,117.58zm-307.78 812.77c27.12,-9.46 53.32,-21.45 80.01,-30.89 53.18,-19.75 108.66,-32.55 164.57,-38.57 55.95,-6.35 112.44,-3.56 167.47,5.22 46.94,8.02 92.63,22.09 136.07,41.01 -14.56,14.87 -30.33,29.36 -46.35,42.79 -22.39,18.53 -45.88,35.66 -70.45,50.86 -49.12,30.26 -102.86,52.53 -158.37,62.01 -27.72,4.77 -55.85,6.25 -83.68,4.05 -27.81,-2.34 -55.22,-8.37 -81.67,-17.51 -13.33,-4.22 -26.06,-10.27 -38.96,-15.82 -12.21,-6.55 -24.53,-12.77 -36.14,-20.77 -23.52,-15.27 -45.75,-33.21 -66.69,-52.91 -5.32,-4.69 -10.42,-9.68 -15.44,-14.76 16.8,-3.9 33.39,-8.9 49.63,-14.71zm1557.16 -644.8c-59.31,-12.12 -119.05,-22.27 -179.19,-30.15 -4.18,-0.55 -8.38,-0.97 -12.57,-1.48 10.99,-60.01 10.77,-122.36 2.65,-183.12 -4.64,-37.02 -12.93,-73.48 -22.79,-109.47 -10.4,-35.97 -22.66,-70.81 -38.48,-105.61l-3.76 -8.29 -9.07 0.84c-37.89,3.49 -74.21,9.87 -110.57,18.48 -36.12,8.95 -71.87,19.8 -106.29,34.12 -34.51,14.07 -67.77,31.3 -98.75,51.98 -15.41,10.44 -30.13,21.85 -44.07,34.08 -4.25,3.76 -8.19,7.83 -12.23,11.8 -10.15,-15.5 -20.44,-30.88 -30.98,-46.06 -34.59,-49.7 -71.65,-97.49 -109.88,-144.24 -38.46,-46.74 -77.7,-92.06 -119.84,-136.49l-19.54 -20.61 -19.02 21.15c-41.08,45.63 -79.12,92.18 -116.39,140.09 -37.06,47.91 -72.79,96.91 -106.2,147.61 -7.49,11.48 -14.83,23.03 -22.11,34.65 -2.52,-2.25 -4.87,-4.65 -7.46,-6.82 -14.27,-11.83 -29.3,-22.84 -45.01,-32.84 -31.52,-19.83 -65.25,-36.15 -100.12,-49.25 -34.8,-13.37 -70.83,-23.23 -107.2,-31.2 -36.57,-7.61 -73.06,-12.98 -111.02,-15.43l-9.09 -0.58 -3.53 8.37c-14.86,35.22 -26.16,70.39 -35.56,106.64 -8.87,36.23 -16.17,72.91 -19.78,110.05 -6.22,58.77 -5.05,118.79 6.34,176.5 -8.19,1.18 -16.41,2.29 -24.59,3.59 -59.89,9.53 -119.34,21.3 -178.3,35.06 -59.06,13.82 -117.25,28.98 -175.7,47.63l-26 8.3 10.17 25.41c22.71,56.81 47.44,111.42 73.79,165.91 26.44,54.31 54.48,107.91 84.97,160.26 30.67,52.23 63.54,103.37 99.61,152.55 18.36,24.38 36.92,48.67 57.27,71.73 9.79,11.8 20.65,22.83 31.01,34.21 11.04,10.87 21.58,22.14 33.32,32.42 22.66,21.26 47.64,40.54 74.54,57.45 13.25,8.74 27.72,15.89 42.05,23.15 14.66,6.11 29.15,12.6 44.44,17.2 30.25,9.9 61.81,16.29 93.7,18.41 31.9,1.98 63.95,-0.26 95.08,-6.17 62.45,-11.84 120.36,-38.59 172.13,-72.32 25.88,-17.02 50.33,-35.92 73.48,-56.21 23.07,-20.65 44.71,-41.66 64.95,-66.44l14.74 -18.06 -20.97 -9.15c-53.94,-23.54 -110.94,-39.91 -169.01,-47.55 -58.08,-7.27 -117.05,-6.84 -174.43,2.47l-21.5 3.53c-7.12,1.36 -14.19,3.03 -21.28,4.53 -14.24,2.78 -28.13,7 -42.12,10.69 -13.84,4.23 -27.6,8.74 -41.18,13.63 -13.45,5.29 -27.06,10.07 -40.14,16.18 -26.62,11.28 -51.82,24.52 -77.94,35.96 -16.07,7.06 -32.52,13.34 -49.33,18.46 -4.47,-4.55 -8.91,-9.13 -13.43,-13.62 -9.71,-10.79 -19.83,-21.14 -29.09,-32.44 -19.14,-21.92 -36.81,-45.32 -54.3,-68.82 -34.45,-47.53 -66.13,-97.36 -95.76,-148.48 -54.56,-94.11 -103.72,-192.62 -146.11,-292.68 104.18,-31.96 211.28,-58.85 318.89,-77.79 58.5,-9.99 117.26,-18.27 176.18,-22.65 45.03,-3.03 90.28,-4.32 134.96,-1.51 -0.28,1.04 -0.62,2.05 -0.9,3.08 -4.49,14.81 -7.58,30.12 -10.99,45.28 -2.5,15.45 -5.58,30.76 -6.59,46.54 -1.86,15.57 -1.67,31.6 -1.59,47.33 0.95,15.6 1.81,31.18 4.45,46.66 4.7,30.88 12.16,61.58 24.37,90.51 11.98,28.94 27.6,56.33 46.54,81.03 38.09,49.4 88.05,87.8 142.23,115.38 54.37,27.4 112.79,45.89 172.39,53.79 -29.35,-6.37 -57.81,-15.98 -85.45,-27.15 -27.62,-11.24 -54.49,-24.17 -79.78,-39.55 -50.54,-30.56 -95.88,-69.77 -128.23,-117.82 -16.3,-23.84 -29.5,-49.61 -39.15,-76.63 -9.92,-26.95 -15.36,-55.37 -18.3,-83.88 -1.79,-14.25 -1.73,-28.69 -2.22,-43.07 0.47,-14.24 0.71,-28.28 2.94,-42.48 1.36,-14.16 4.73,-28.25 7.48,-42.32 3.7,-13.98 6.99,-28.02 11.71,-41.78 1.2,-3.65 2.48,-7.27 3.73,-10.89 13.96,1.51 27.65,4.06 41.43,6.38 14.03,3.29 28.34,6.01 41.9,10.63 13.95,3.82 26.98,9.43 40.25,14.89 12.99,6.35 26.19,12.42 38.48,20.02 50.09,28.82 93.03,69.81 123.04,119.68 30.16,49.82 47.1,107.54 53.81,166.37 6.08,58.93 3.84,119.44 -8.73,178.13 16.76,-57.67 23.81,-118.46 20.88,-179.11 -3.03,-60.57 -17.41,-121.67 -46.95,-176.24 -14.64,-27.25 -32.95,-52.67 -54.25,-75.41 -21.23,-22.87 -46.08,-42.09 -72.18,-58.91 -12.95,-8.69 -26.77,-15.75 -40.48,-23.09 -14.18,-6.55 -28.57,-13.31 -43.43,-18.04 -14.69,-5.6 -29.81,-9.13 -44.83,-13.24 -11.97,-2.49 -23.96,-5.22 -36,-7.22 36.74,-93.43 89.51,-181.64 146.72,-265.76 61.36,-89.91 128.96,-176.84 200.81,-258.34 73.9,79.2 143.56,164.05 207.3,251.86 62.01,85.91 119.34,176.37 159.03,273.06 -13.89,2.39 -27.63,5.95 -41.39,9.21 -14.91,4.52 -29.93,8.47 -44.45,14.47 -14.73,5.13 -28.94,12.29 -42.92,19.22 -13.5,7.72 -27.13,15.16 -39.83,24.19 -25.63,17.54 -49.94,37.44 -70.54,60.88 -20.67,23.3 -38.27,49.23 -52.17,76.86 -28.02,55.35 -40.72,116.84 -42.08,177.47 -1.26,60.7 7.45,121.27 25.79,178.46 -14.18,-58.32 -18.08,-118.73 -13.62,-177.82 5.1,-59 20.44,-117.15 49.22,-167.78 28.63,-50.67 70.43,-92.83 119.7,-123.01 12.09,-7.95 25.11,-14.37 37.92,-21.07 13.12,-5.83 25.99,-11.79 39.83,-15.99 13.43,-5 27.65,-8.1 41.59,-11.78 14.27,-2.81 28.39,-5.89 42.89,-7.79 1.2,-0.17 2.39,-0.3 3.57,-0.48 9.51,26.65 16.71,53.92 21.16,81.35 2.65,14.08 3.37,28.13 4.44,42.24 -0.15,14.26 0.42,28.6 -1.07,42.8 -2.19,28.44 -7.68,56.64 -16.85,83.78 -9.27,27.09 -22.25,52.94 -37.97,77.19 -31.33,48.74 -74.59,89.86 -122.73,124.03 -24.16,17.05 -49.72,32.25 -76.14,45.95 -26.45,13.63 -53.72,26 -82.12,35.53 58.23,-14.34 114.26,-38.13 166.27,-69.23 51.8,-31.33 99.28,-71.65 136.06,-121.55 18.3,-24.94 33.54,-52.37 45.11,-81.41 11.43,-29.09 18.96,-59.73 22.84,-90.77 2.29,-15.54 2.67,-31.15 3.27,-46.81 -0.57,-15.77 -0.94,-31.63 -3.28,-47.12 -3.5,-27.57 -9.52,-54.58 -17.42,-80.81 43.22,-3.66 87.03,-3.53 130.67,-1.81 59.02,2.76 117.99,9.43 176.75,17.79 108.08,15.98 215.88,39.93 320.9,69.02 -39.63,101.19 -86.06,201.01 -138.02,296.59 -28.23,51.9 -58.51,102.6 -91.64,151.03 -16.85,23.98 -33.87,47.87 -52.41,70.3 -8.94,11.54 -18.78,22.17 -28.17,33.24 -4.4,4.6 -8.71,9.3 -13.06,13.96 -16.95,-4.65 -33.57,-10.46 -49.81,-17.1 -26.43,-10.7 -51.99,-23.24 -78.91,-33.79 -13.24,-5.75 -26.98,-10.16 -40.57,-15.08 -13.71,-4.51 -27.59,-8.64 -41.54,-12.49 -14.08,-3.3 -28.08,-7.15 -42.38,-9.53 -7.13,-1.3 -14.26,-2.77 -21.42,-3.94l-21.58 -2.95c-57.62,-7.72 -116.57,-6.54 -174.43,2.33 -57.84,9.23 -114.37,27.16 -167.63,52.17l-20.72 9.73 15.24 17.66c20.9,24.21 43.12,44.6 66.74,64.62 23.71,19.64 48.66,37.85 75,54.16 52.68,32.3 111.29,57.45 174.05,67.59 31.28,5.03 63.38,6.4 95.21,3.54 31.82,-3 63.19,-10.26 93.16,-20.97 15.15,-5.03 29.47,-11.92 43.96,-18.42 14.11,-7.66 28.4,-15.19 41.39,-24.3 26.43,-17.64 50.87,-37.59 72.93,-59.46 11.46,-10.6 21.68,-22.18 32.41,-33.32 10.05,-11.67 20.6,-23 30.07,-35.06 19.71,-23.62 37.6,-48.39 55.27,-73.28 34.71,-50.16 66.16,-102.17 95.39,-155.23 29.05,-53.17 55.6,-107.51 80.53,-162.53 24.85,-55.19 48.08,-110.46 69.22,-167.87l9.47 -25.68 -26.22 -7.58c-58.94,-17.03 -117.52,-30.59 -176.96,-42.8z" />
      <path
        d="M292.46 1601.18l87.22 161.06 4.2 -8.23 -82.98 -152.83 -8.44 0zm175.63 7.82l-6.91 14.12 10.58 145.25 8.64 0 -11.81 -159.37 -0.5 0zm-205.71 -12.51l51.9 0c4.36,9.63 8.07,17.53 11.11,23.62 3.05,6.14 6.75,13.26 11.11,21.49l33.88 62.85c8.36,15.11 15.35,26.47 20.99,34 4.65,-7.57 12.06,-21.07 22.19,-40.54l30.87 -58c8.8,-16.79 15.55,-31.28 20.2,-43.42l51.58 0 0 1.23 -32.07 4.41c-0.49,7.08 -0.74,14.16 -0.74,21.24 0,7.41 0.7,22.55 2.1,45.44 1.44,22.84 3.13,44.16 5.15,63.92 2.02,19.75 3.87,31.36 5.55,34.9l22.19 4.2 0 1.23 -82.65 0 0 -1.23 28.65 -4.2c0.66,-6.09 0.95,-14.32 0.95,-24.69 0,-5.73 -0.21,-13.18 -0.58,-22.4 -0.41,-9.21 -1.03,-19.79 -1.85,-31.73 -0.87,-11.94 -1.9,-22.97 -3.09,-33.09 -1.19,-10.17 -2.31,-17 -3.33,-20.54 -3.79,6.05 -7.74,12.97 -11.82,20.79l-46.92 87.91c-7.41,14.41 -12.35,24.7 -14.82,30.87l-1.68 0c-1.69,-3.7 -4.61,-9.59 -8.69,-17.74 -4.11,-8.11 -7.41,-14.44 -9.92,-19.06l-39.31 -72.85c-6.66,-12.39 -12.14,-22.26 -16.5,-29.67 -0.58,3.21 -1.4,10.53 -2.55,21.98 -1.11,11.4 -2.18,23.79 -3.17,37.12 -1.03,13.38 -1.77,24.74 -2.31,34.16 -0.53,9.39 -0.78,16.8 -0.78,22.19 0,3.79 0.17,9.3 0.49,16.55l22.89 4.4 0 1.23 -59.27 0 0 -1.23 22.97 -4.4c1.11,-3.42 2.67,-14.53 4.57,-33.43 1.93,-18.89 3.62,-38.36 5.1,-58.32 1.44,-20 2.14,-34.45 2.14,-43.38 0,-3.13 -0.12,-7.99 -0.45,-14.57 -2.35,-4.86 -6.88,-10.04 -13.59,-15.6l-20.49 -4.41 0 -1.23z" />
      <path id="1"
        d="M613.51 1618.47l62.52 149.9 8.11 0 -66.68 -160.03 -3.95 10.13zm-2.02 10.12c-2.14,4.24 -5.02,10.5 -8.6,18.69 -3.58,8.19 -6.83,15.89 -9.71,23.05 -2.93,7.12 -5.93,14.74 -9.06,22.84 -3.13,8.07 -5.23,13.42 -6.3,15.97 4.78,0.66 10.29,1.07 16.59,1.32 6.34,0.25 12.35,0.37 18.07,0.37 14.08,0 25.6,-0.58 34.62,-1.69 -3.05,-9.09 -8.24,-22.02 -15.56,-38.77 -7.33,-16.75 -14,-30.7 -20.05,-41.78zm12.84 -33.83l52.24 124.55c6.75,16.22 14.61,32.35 23.62,48.32l20.01 4.2 0 1.23 -85.12 0 0 -1.23 32.76 -4.2c-1.19,-7.94 -3.42,-16.59 -6.71,-25.97 -3.25,-9.34 -6.83,-17.49 -10.78,-24.41l-75.61 0c-3.25,8.11 -5.85,14.78 -7.82,20.01 -1.98,5.22 -3.83,10.66 -5.64,16.29 -1.81,5.6 -3.01,10.34 -3.58,14.08l31.61 4.2 0 1.23 -67.42 0 0 -1.23 22.23 -4.2c5.39,-9.3 10.29,-19.59 14.77,-30.83l55.94 -142.04 9.5 0z" />
      <path id="2"
        d="M894.05 1600.94l0 167.43 8.4 0 0 -167.43 -8.4 0zm-139.53 0.24l0 167.19 8.4 0 0 -167.19 -8.4 0zm-31.61 -4.69l87.75 0 0 1.23 -31.93 4.2c-0.91,4.41 -1.65,12.23 -2.23,23.42 -0.61,11.16 -0.9,20.66 -0.9,28.48 0,6.75 0.2,15.07 0.7,24.99 11.73,2.26 29.34,3.37 52.8,3.37 11.65,0 22.56,-0.24 32.77,-0.74 10.2,-0.45 19.55,-1.36 27.99,-2.63 0.61,-7.82 0.94,-17.16 0.94,-28.03 0,-6.42 -0.2,-12.88 -0.53,-19.35 -0.37,-6.5 -0.74,-11.69 -1.16,-15.64 -0.41,-3.95 -0.94,-8.64 -1.68,-14.11l-31.94 -3.96 0 -1.23 87.59 0 0 1.23 -24.58 3.96c-1.31,5.92 -2.26,15.97 -2.84,30.08 -0.61,14.12 -0.9,27.79 -0.9,41.08l0 40.42c0,24.2 1.23,42.31 3.74,54.37l24.82 4.2 0 1.23 -87.83 0 0 -1.23 31.32 -4.2c2.26,-13.66 3.58,-28.65 3.99,-44.99 0.17,-4.19 0.17,-9.26 0,-15.27 -0.16,-6.01 -0.49,-12.26 -0.94,-18.76l-113.81 0c-0.33,6.04 -0.45,15.47 -0.45,28.35 0,7.66 0.24,16.55 0.78,26.72 0.49,10.2 1.4,18.19 2.67,23.95l31.61 4.2 0 1.23 -87.95 0 0 -1.23 24.32 -4.2c0.58,-3.21 1.2,-8.97 1.81,-17.29 0.66,-8.31 1.2,-17.69 1.57,-28.11 0.41,-10.41 0.62,-19.18 0.62,-26.22l0 -44.53c0,-1.28 -0.13,-5.52 -0.38,-12.72 -0.24,-7.2 -0.65,-14.36 -1.23,-21.48 -0.62,-7.12 -1.24,-12.31 -1.89,-15.6l-24.62 -3.96 0 -1.23z" />
      <path id="3"
        d="M1037.99 1618.47l62.52 149.9 8.11 0 -66.68 -160.03 -3.95 10.13zm-2.02 10.12c-2.14,4.24 -5.02,10.5 -8.6,18.69 -3.58,8.19 -6.83,15.89 -9.71,23.05 -2.93,7.12 -5.93,14.74 -9.06,22.84 -3.13,8.07 -5.23,13.42 -6.29,15.97 4.77,0.66 10.28,1.07 16.58,1.32 6.34,0.25 12.35,0.37 18.07,0.37 14.08,0 25.6,-0.58 34.62,-1.69 -3.05,-9.09 -8.24,-22.02 -15.56,-38.77 -7.33,-16.75 -14,-30.7 -20.05,-41.78zm12.84 -33.83l52.24 124.55c6.75,16.22 14.61,32.35 23.62,48.32l20.01 4.2 0 1.23 -85.12 0 0 -1.23 32.76 -4.2c-1.19,-7.94 -3.42,-16.59 -6.71,-25.97 -3.25,-9.34 -6.83,-17.49 -10.78,-24.41l-75.61 0c-3.25,8.11 -5.85,14.78 -7.82,20.01 -1.98,5.22 -3.83,10.66 -5.64,16.29 -1.81,5.6 -3.01,10.34 -3.58,14.08l31.61 4.2 0 1.23 -67.42 0 0 -1.23 22.23 -4.2c5.39,-9.3 10.29,-19.59 14.77,-30.83l55.94 -142.04 9.5 0z" />
      <path id="4"
        d="M1325.41 1768.37l8.15 0 0 -75.4 -57.34 -92.03 -8.81 0 58 92.89 0 74.54zm-64.99 -166.49l-24.37 -4.16 0 -1.23 93.8 0 0 1.23 -36.05 4.16c5.39,11.94 12.96,25.81 22.76,41.65 9.84,15.81 18.56,28.69 26.3,38.57 8.44,-9.3 18.4,-22.39 29.88,-39.18 11.48,-16.8 20.05,-30.5 25.68,-41.04l-35.31 -4.16 0 -1.23 70.18 0 0 1.48 -20.75 3.91c-4.73,5.64 -9.34,11.44 -13.74,17.37 -4.41,5.97 -10.13,13.91 -17.13,23.91 -6.99,9.97 -12.51,17.95 -16.5,23.96 -4.04,5.97 -10.09,15.11 -18.11,27.41 -0.62,9.92 -0.95,20.91 -0.95,33.05 0,16.59 1.24,29.93 3.71,40.05l29.92 4.2 0 1.23 -91.33 0 0 -1.23 29.3 -4.2c1.28,-5.06 2.31,-11.98 3.05,-20.74 0.78,-8.77 1.15,-17 1.15,-24.7 0,-5.8 -0.25,-14.86 -0.7,-27.16 -4.69,-8.52 -10.62,-18.65 -17.82,-30.34 -7.16,-11.69 -14.61,-23.17 -22.23,-34.37 -7.65,-11.23 -14.57,-20.7 -20.74,-28.44z" />
      <path id="5"
        d="M1541.54 1594.02c17.12,0 31.94,2.84 44.49,8.56 12.51,5.72 22.8,13.17 30.79,22.43 7.98,9.26 13.87,19.06 17.61,29.47 3.75,10.42 5.6,20.42 5.6,29.97 0,10.95 -2.1,21.69 -6.34,32.23 -4.19,10.49 -10.45,20.12 -18.68,28.85 -8.23,8.72 -18.44,15.72 -30.63,20.95 -12.18,5.23 -25.72,7.82 -40.7,7.82 -21.61,0 -39.93,-4.69 -54.99,-14.04 -15.02,-9.38 -26.1,-20.99 -33.26,-34.82 -7.16,-13.83 -10.74,-27.33 -10.74,-40.5 0,-11.65 2.26,-22.97 6.83,-33.87 4.53,-10.95 11.11,-20.75 19.76,-29.39 8.64,-8.64 18.97,-15.39 31.03,-20.29 12.06,-4.9 25.15,-7.37 39.23,-7.37zm0.7 8.4c-12.47,0 -24,3.25 -34.58,9.75 -10.57,6.5 -18.97,15.93 -25.23,28.24 -6.21,12.3 -9.34,26.79 -9.34,43.5 0,18.03 3.42,33.22 10.21,45.65 6.79,12.43 15.47,21.61 26.13,27.62 10.66,5.97 21.65,8.97 33.01,8.97 9.22,0 17.99,-1.77 26.26,-5.31 8.28,-3.54 15.68,-8.68 22.19,-15.48 6.5,-6.79 11.6,-15.14 15.27,-25.1 3.66,-9.92 5.47,-20.99 5.47,-33.22 0,-16.71 -1.93,-30.05 -5.76,-40.01 -3.87,-9.96 -9.55,-18.68 -17,-26.17 -6.34,-6.34 -13.54,-10.99 -21.65,-14 -8.07,-2.96 -16.38,-4.44 -24.98,-4.44zm6.17 -4.94l0 1.23c7.78,0.58 15.6,2.39 23.5,5.48 7.87,3.08 15.23,7.94 22.11,14.48 6.83,6.55 12.34,15.36 16.54,26.47 4.16,11.07 6.26,24.41 6.26,40.01 0,10.21 -1.24,20 -3.67,29.3 -2.46,9.35 -6.37,17.95 -11.81,25.81 -5.43,7.86 -12.51,14.36 -21.24,19.51 -8.76,5.14 -19.22,8.36 -31.44,9.55l0 1.32c10.29,-0.46 20.04,-2.68 29.3,-6.63 9.26,-3.95 17.46,-9.59 24.66,-16.92 7.2,-7.36 12.88,-16.34 17.08,-26.96 4.16,-10.62 6.26,-22.43 6.26,-35.48 0,-14.2 -2.19,-26.79 -6.51,-37.66 -4.36,-10.9 -10.25,-19.96 -17.74,-27.2 -7.49,-7.25 -15.76,-12.72 -24.9,-16.39 -9.14,-3.7 -18.6,-5.68 -28.4,-5.92zm-11.85 1.23l0 -1.23c-11.24,0.08 -22.23,2.51 -32.93,7.24 -10.66,4.73 -20.09,11.16 -28.19,19.3 -8.11,8.11 -14.45,17.33 -18.98,27.71 -4.57,10.37 -6.83,21.28 -6.83,32.68 0,13.99 3.78,27.61 11.4,40.83 7.57,13.25 18.11,23.99 31.53,32.27 13.42,8.27 28.15,12.67 44.24,13.13l0 -1.32c-15.6,-1.36 -29.38,-6.22 -41.36,-14.61 -11.98,-8.36 -21.08,-18.73 -27.33,-31.08 -6.22,-12.39 -9.34,-25.23 -9.34,-38.48 0,-10.91 1.81,-21.4 5.43,-31.45 3.62,-10.04 8.85,-19.01 15.68,-26.92 6.83,-7.86 15.11,-14.24 24.78,-19.14 9.67,-4.89 20.33,-7.9 31.9,-8.93z" />
      <path id="6"
        d="M1805.04 1710.09l0 47.17 8.15 -3.01 0 -44.16 -8.15 0zm43.43 -3.5l-19.31 4.49c-1.03,5.84 -1.89,13.37 -2.51,22.55 -0.66,9.18 -0.95,17.37 -0.86,24.62 -9.22,3.62 -16.75,6.38 -22.6,8.31 -5.84,1.94 -12.8,3.66 -20.87,5.19 -8.07,1.52 -16.87,2.3 -26.46,2.3 -15.85,0 -29.8,-2.51 -41.86,-7.49 -12.06,-4.98 -21.98,-11.65 -29.84,-20.04 -7.82,-8.44 -13.63,-17.78 -17.41,-28.07 -3.79,-10.29 -5.68,-20.67 -5.68,-31.08 0,-12.31 2.09,-24.08 6.25,-35.27 4.2,-11.24 10.33,-21.24 18.48,-30.05 8.11,-8.81 18.07,-15.72 29.84,-20.74 11.77,-5.03 25.11,-7.54 39.97,-7.54 2.35,0 4.16,0.04 5.47,0.13 1.36,0.08 3.01,0.16 5.03,0.24 2.01,0.09 4.69,0.21 8.06,0.37 9.84,0.66 19.14,0.99 27.91,0.99 8.11,0 14.73,-0.25 19.8,-0.74l1.68 40.26 -1.68 0 -7.74 -26.92c-3.05,-0.83 -6.88,-1.65 -11.44,-2.47 -4.57,-0.87 -9.76,-1.61 -15.48,-2.27 -5.76,-0.61 -11.98,-0.94 -18.65,-0.94 -14.07,0 -26.3,2.26 -36.67,6.83 -10.37,4.53 -18.73,10.62 -25.02,18.32 -6.3,7.65 -10.91,16.17 -13.83,25.51 -2.88,9.31 -4.32,18.86 -4.32,28.57 0,11.03 2.01,21.44 6.09,31.24 4.03,9.8 9.79,18.48 17.24,26.05 7.41,7.54 16.1,13.46 25.97,17.66 9.88,4.24 20.38,6.34 31.45,6.34 2.88,0 5.89,-0.17 8.93,-0.49 3.05,-0.33 6.22,-0.75 9.47,-1.28 3.25,-0.49 6.95,-1.07 11.15,-1.73 1.69,-7.16 2.51,-14.73 2.51,-22.68 0,-11.03 -0.82,-19.67 -2.51,-25.93l-31.11 -4.24 0 -1.44 80.55 0 0 1.44zm-78.25 -108.41l0 -0.95c-5.39,-0.49 -10.25,-0.74 -14.61,-0.74 -13.01,0 -25.03,2.26 -36.02,6.75 -10.94,4.49 -20.45,10.83 -28.44,18.97 -7.98,8.19 -14.2,17.87 -18.56,29.06 -4.4,11.24 -6.59,23.22 -6.59,36.02 0,14.94 3.75,28.81 11.2,41.65 7.49,12.8 18.23,23.01 32.23,30.58 13.99,7.54 30.46,11.32 49.43,11.32 3.54,0 8.36,-0.37 14.49,-1.07l0 -0.99c-17.7,0.09 -32.85,-2.3 -45.56,-7.24 -12.68,-4.9 -22.93,-11.57 -30.71,-20 -7.82,-8.44 -13.46,-17.7 -16.96,-27.75 -3.5,-10.04 -5.23,-20.08 -5.23,-30.12 0,-12.39 1.98,-23.79 5.97,-34.25 3.96,-10.45 9.76,-19.51 17.41,-27.12 7.62,-7.66 17.21,-13.59 28.73,-17.78 11.53,-4.24 24.53,-6.34 38.98,-6.34l4.24 0z" />
      <path id="7"
        d="M1942.85 1618.47l62.52 149.9 8.11 0 -66.68 -160.03 -3.95 10.13zm-2.02 10.12c-2.14,4.24 -5.02,10.5 -8.6,18.69 -3.59,8.19 -6.84,15.89 -9.72,23.05 -2.92,7.12 -5.92,14.74 -9.05,22.84 -3.13,8.07 -5.23,13.42 -6.3,15.97 4.77,0.66 10.29,1.07 16.59,1.32 6.34,0.25 12.35,0.37 18.07,0.37 14.07,0 25.6,-0.58 34.61,-1.69 -3.04,-9.09 -8.23,-22.02 -15.56,-38.77 -7.32,-16.75 -13.99,-30.7 -20.04,-41.78zm12.84 -33.83l52.23 124.55c6.75,16.22 14.61,32.35 23.63,48.32l20 4.2 0 1.23 -85.12 0 0 -1.23 32.77 -4.2c-1.2,-7.94 -3.42,-16.59 -6.71,-25.97 -3.25,-9.34 -6.84,-17.49 -10.79,-24.41l-75.61 0c-3.25,8.11 -5.84,14.78 -7.82,20.01 -1.97,5.22 -3.83,10.66 -5.64,16.29 -1.81,5.6 -3,10.34 -3.58,14.08l31.61 4.2 0 1.23 -67.42 0 0 -1.23 22.23 -4.2c5.39,-9.3 10.29,-19.59 14.78,-30.83l55.93 -142.04 9.51 0z" />
    </g>
  </symbol>
  <symbol viewBox="0 0 100 100" id="whatsapp_icon-svg">
    <path
      d="M50.168 10C60.8239 10.004 70.8257 14.1522 78.346 21.6819C85.8676 29.2114 90.0066 39.2185 90 49.8636C89.9906 71.8252 72.1203 89.6956 50.1668 89.6956H50.1508C43.4852 89.6929 36.9338 88.0208 31.1162 84.8468L10 90.3853L15.6516 69.7437C12.1665 63.7042 10.3323 56.851 10.3349 49.8304C10.343 27.8676 28.2134 10 50.168 10V10ZM61.5376 54.7631C62.4507 55.0954 67.3433 57.5023 68.3389 58.0009C68.5313 58.0971 68.7113 58.1842 68.8784 58.265C69.5753 58.602 70.0458 58.8296 70.2462 59.1651C70.4947 59.5799 70.4947 61.5736 69.6654 63.8982C68.8359 66.2229 64.8605 68.3442 62.9478 68.63C61.2319 68.8865 59.0627 68.9928 56.6782 68.2353C55.2322 67.7767 53.3794 67.1653 51.0041 66.1392C41.6698 62.1082 35.3628 53.06 34.1747 51.3556C34.0919 51.2368 34.0341 51.1538 34.0017 51.1106L33.9981 51.1056C33.486 50.4243 29.9372 45.7022 29.9372 40.8149C29.9372 36.2325 32.1873 33.8303 33.2244 32.7232C33.2961 32.6467 33.3619 32.5763 33.4208 32.5118C34.3341 31.5149 35.412 31.2664 36.0751 31.2664C36.7385 31.2664 37.4029 31.2717 37.9826 31.301C38.0541 31.3046 38.1286 31.304 38.2056 31.3037C38.786 31.3001 39.5087 31.2957 40.2221 33.0089C40.4976 33.6707 40.9012 34.653 41.3265 35.6882C42.1818 37.7702 43.1251 40.066 43.2912 40.399C43.5397 40.8974 43.7058 41.4782 43.3736 42.1427C43.323 42.2436 43.2763 42.3387 43.2318 42.4295C42.9831 42.9364 42.7995 43.3104 42.378 43.8029C42.2125 43.9963 42.0413 44.2045 41.8703 44.4131C41.5273 44.8309 41.1842 45.2488 40.8853 45.5467C40.387 46.0425 39.8686 46.5808 40.4493 47.5777C41.0303 48.5731 43.028 51.8323 45.9867 54.472C49.1661 57.3091 51.93 58.5078 53.3318 59.1157C53.6058 59.2346 53.8279 59.3308 53.9907 59.4124C54.9849 59.9109 55.5658 59.8284 56.1465 59.1637C56.7274 58.4993 58.6347 56.2583 59.298 55.2615C59.9612 54.2646 60.6259 54.4307 61.5376 54.7631V54.7631Z">
    </path>
  </symbol>
  <symbol viewBox="0 0 100 100" id="telegram_icon-svg">
    <path
      d="M83.1797 17.5886C83.1797 17.5886 90.5802 14.7028 89.9635 21.711C89.758 24.5968 87.9079 34.6968 86.4688 45.6214L81.5351 77.9827C81.5351 77.9827 81.124 82.7235 77.4237 83.548C73.7233 84.3724 68.173 80.6623 67.145 79.8378C66.3227 79.2195 51.7273 69.9438 46.5878 65.4092C45.1488 64.1724 43.5042 61.6989 46.7934 58.8132L68.3785 38.201C70.8454 35.7274 73.3122 29.956 63.0336 36.9642L34.2535 56.5459C34.2535 56.5459 30.9644 58.6071 24.7973 56.752L11.4351 52.6295C11.4351 52.6295 6.50135 49.5377 14.9298 46.4457C35.4871 36.7579 60.7724 26.864 83.1797 17.5886Z">
    </path>
  </symbol>
  <symbol viewBox="0 0 100 100" id="vk_icon-svg">
    <path
      d="M53.7512 76.4147C25.0516 76.4147 8.68207 56.7395 8 24H22.376C22.8482 48.03 33.4463 58.2086 41.8411 60.3073V24H55.3782V44.7245C63.668 43.8326 72.3765 34.3885 75.3146 24H88.8514C86.5954 36.802 77.1513 46.2461 70.4355 50.1287C77.1513 53.2767 87.9076 61.5141 92 76.4147H77.0988C73.8983 66.446 65.9241 58.7333 55.3782 57.684V76.4147H53.7512Z">
    </path>
  </symbol>
  <symbol viewBox="0 0 10 16" id="arrow-prev-svg">
    <path
      d="M0.766461 14.6143C0.666015 14.5138 0.615791 14.3983 0.615791 14.2678C0.615791 14.1372 0.666015 14.0217 0.766461 13.9212L6.68778 7.9999L0.766461 2.07858C0.666015 1.97813 0.615791 1.86262 0.615791 1.73204C0.615791 1.60146 0.666015 1.48594 0.766461 1.3855L1.51981 0.632149C1.62026 0.531703 1.73577 0.48148 1.86635 0.48148C1.99693 0.48148 2.11244 0.531703 2.21289 0.632149L9.2341 7.65335C9.33454 7.7538 9.38477 7.86932 9.38477 7.9999C9.38477 8.13048 9.33454 8.24599 9.2341 8.34644L2.21289 15.3676C2.11244 15.4681 1.99693 15.5183 1.86635 15.5183C1.73577 15.5183 1.62026 15.4681 1.51981 15.3676L0.766461 14.6143Z" />
  </symbol>
  <symbol viewBox="0 0 10 16" id="arrow-next-svg">
    <path
      d="M9.23354 14.6143C9.33399 14.5138 9.38421 14.3983 9.38421 14.2678C9.38421 14.1372 9.33399 14.0217 9.23354 13.9212L3.31222 7.9999L9.23354 2.07858C9.33399 1.97813 9.38421 1.86262 9.38421 1.73204C9.38421 1.60146 9.33399 1.48594 9.23354 1.3855L8.48019 0.632149C8.37974 0.531703 8.26423 0.48148 8.13365 0.48148C8.00307 0.48148 7.88756 0.531703 7.78711 0.632149L0.765904 7.65335C0.665458 7.7538 0.615234 7.86932 0.615234 7.9999C0.615234 8.13048 0.665458 8.24599 0.765904 8.34644L7.78711 15.3676C7.88756 15.4681 8.00307 15.5183 8.13365 15.5183C8.26423 15.5183 8.37974 15.4681 8.48019 15.3676L9.23354 14.6143Z" />
  </symbol>
  <symbol viewBox="0 0 6.8 6.8" id="arrow-up-svg" fill-rule="evenodd" clip-rule="evenodd">
    <g>
      <path fill="#FF6600"
        d="M5.33 4.63c-0.03,0.03 -0.07,0.05 -0.1,0.05 -0.04,0 -0.08,-0.02 -0.11,-0.05l-1.72 -1.72 -1.72 1.72c-0.03,0.03 -0.07,0.05 -0.1,0.05 -0.04,0 -0.08,-0.02 -0.1,-0.05l-0.22 -0.22c-0.03,-0.03 -0.05,-0.06 -0.05,-0.1 0,-0.03 0.02,-0.07 0.05,-0.1l2.04 -2.04c0.03,-0.03 0.06,-0.05 0.1,-0.05 0.04,0 0.07,0.02 0.1,0.05l2.05 2.04c0.02,0.03 0.04,0.07 0.04,0.1 0,0.04 -0.02,0.07 -0.04,0.1l-0.22 0.22z" />
      <path fill="none" stroke="#FF6600" stroke-width="0.38" stroke-miterlimit="22.9256"
        d="M3.4 0.19c1.77,0 3.21,1.44 3.21,3.21 0,1.77 -1.44,3.21 -3.21,3.21 -1.77,0 -3.21,-1.44 -3.21,-3.21 0,-1.77 1.44,-3.21 3.21,-3.21z" />
    </g>
  </symbol>

</svg>