<svg width="10" height="16" viewBox="0 0 10 16" fill="none" xmlns="http://www.w3.org/2000/svg">
<path d="M0.766461 14.6143C0.666015 14.5138 0.615791 14.3983 0.615791 14.2678C0.615791 14.1372 0.666015 14.0217 0.766461 13.9212L6.68778 7.9999L0.766461 2.07858C0.666015 1.97813 0.615791 1.86262 0.615791 1.73204C0.615791 1.60146 0.666015 1.48594 0.766461 1.3855L1.51981 0.632149C1.62026 0.531703 1.73577 0.48148 1.86635 0.48148C1.99693 0.48148 2.11244 0.531703 2.21289 0.632149L9.2341 7.65335C9.33454 7.7538 9.38477 7.86932 9.38477 7.9999C9.38477 8.13048 9.33454 8.24599 9.2341 8.34644L2.21289 15.3676C2.11244 15.4681 1.99693 15.5183 1.86635 15.5183C1.73577 15.5183 1.62026 15.4681 1.51981 15.3676L0.766461 14.6143Z" fill="white"/>
</svg>
