<svg width="10" height="16" viewBox="0 0 10 16" fill="none" xmlns="http://www.w3.org/2000/svg">
<path d="M9.23354 14.6143C9.33399 14.5138 9.38421 14.3983 9.38421 14.2678C9.38421 14.1372 9.33399 14.0217 9.23354 13.9212L3.31222 7.9999L9.23354 2.07858C9.33399 1.97813 9.38421 1.86262 9.38421 1.73204C9.38421 1.60146 9.33399 1.48594 9.23354 1.3855L8.48019 0.632149C8.37974 0.531703 8.26423 0.48148 8.13365 0.48148C8.00307 0.48148 7.88756 0.531703 7.78711 0.632149L0.765904 7.65335C0.665458 7.7538 0.615234 7.86932 0.615234 7.9999C0.615234 8.13048 0.665458 8.24599 0.765904 8.34644L7.78711 15.3676C7.88756 15.4681 8.00307 15.5183 8.13365 15.5183C8.26423 15.5183 8.37974 15.4681 8.48019 15.3676L9.23354 14.6143Z" fill="#FC8C5F"/>
</svg>
